# Blender v2.79 (sub 0) OBJ File: ''
# www.blender.org
mtllib BeerBottle.mtl
o BeerBottle_Cube
v 0.000000 -0.016819 -1.000000
v 0.000000 3.062922 -1.000000
v 0.707107 -0.016819 -0.707107
v 0.707107 3.062922 -0.707107
v 1.000000 -0.016819 0.000000
v 1.000000 3.062922 0.000000
v 0.707107 -0.016819 0.707107
v 0.707107 3.062922 0.707107
v -0.000000 -0.016819 1.000000
v -0.000000 3.062922 1.000000
v -0.707107 -0.016819 0.707107
v -0.707107 3.062922 0.707107
v -1.000000 -0.016819 -0.000000
v -1.000000 3.062922 -0.000000
v -0.707107 -0.016819 -0.707107
v -0.707107 3.062922 -0.707107
v 0.534597 3.261066 -0.534597
v 0.000000 3.261066 -0.756034
v 0.756034 3.261066 0.000000
v 0.534597 3.261066 0.534597
v -0.000000 3.261066 0.756034
v -0.534597 3.261066 0.534596
v -0.756034 3.261066 -0.000000
v -0.534597 3.261066 -0.534596
v 0.371219 3.478103 -0.371219
v 0.000000 3.478103 -0.524983
v 0.524983 3.478103 0.000000
v 0.371219 3.478103 0.371219
v -0.000000 3.478103 0.524983
v -0.371219 3.478103 0.371219
v -0.524983 3.478103 -0.000000
v -0.371219 3.478103 -0.371219
v 0.371218 4.866062 -0.371219
v -0.000001 4.866062 -0.524983
v 0.524982 4.866062 0.000000
v 0.371218 4.866062 0.371219
v -0.000001 4.866062 0.524983
v -0.371219 4.866062 0.371219
v -0.524983 4.866062 -0.000000
v -0.371219 4.866062 -0.371219
vt 0.546068 0.000000
vt 0.546068 0.544626
vt 0.413570 0.544626
vt 0.413570 0.000000
vt 0.319879 0.544626
vt 0.319879 0.000000
vt 0.865948 0.000000
vt 0.865948 0.544626
vt 0.733449 0.544626
vt 0.733449 0.000000
vt 0.639759 0.544626
vt 0.639759 0.000000
vt 0.319879 0.000000
vt 0.319879 0.544626
vt 0.226189 0.544626
vt 0.226189 0.000000
vt 0.093691 0.544626
vt 0.093690 0.000000
vt 0.000000 0.640332
vt 0.093690 0.544626
vt 0.109853 0.584486
vt 0.039020 0.656843
vt 0.000000 0.544626
vt 0.000000 0.000000
vt 0.639759 0.000000
vt 0.639759 0.544626
vt 0.319879 0.640332
vt 0.413570 0.544626
vt 0.546068 0.544626
vt 0.639759 0.640332
vt 0.639759 0.775681
vt 0.546068 0.871387
vt 0.413570 0.871387
vt 0.319879 0.775681
vt 0.280859 0.759171
vt 0.210026 0.831528
vt 0.194719 0.793778
vt 0.243905 0.743534
vt 0.226189 0.871387
vt 0.093691 0.871387
vt 0.109853 0.831528
vt 0.226189 0.544626
vt 0.319879 0.640332
vt 0.280859 0.656843
vt 0.210026 0.584486
vt 0.000000 0.775681
vt 0.039020 0.759171
vt 0.319879 0.775681
vt 0.926435 0.583007
vt 0.975621 0.583007
vt 0.975621 0.828456
vt 0.926435 0.828456
vt 0.841569 0.544626
vt 0.941742 0.544626
vt 0.856876 0.583007
vt 0.125160 0.622235
vt 0.075974 0.672479
vt 0.243905 0.672479
vt 0.194719 0.622235
vt 0.125160 0.793778
vt 0.075974 0.743534
vt 0.966121 0.283830
vt 0.865948 0.283830
vt 0.881255 0.245449
vt 0.950814 0.245449
vt 0.673638 0.544626
vt 0.773811 0.544626
vt 0.758504 0.583007
vt 0.688945 0.583007
vt 0.758504 1.000000
vt 0.688945 1.000000
vt 0.639759 0.949756
vt 0.639759 0.878700
vt 0.688945 0.828456
vt 0.758504 0.828456
vt 0.807690 0.878700
vt 0.807690 0.949756
vt 0.881255 0.000000
vt 0.950814 0.000000
vt 0.758504 0.828456
vt 0.688945 0.828456
vt 0.807690 0.583007
vt 0.807690 0.828456
vt 0.856876 0.828456
vt 1.000000 0.245449
vt 1.000000 0.000000
vt 0.639759 0.583007
vt 0.639759 0.828456
vn -0.0000 0.0000 -1.0000
vn 0.0000 0.3937 -0.9192
vn 0.6500 0.3937 -0.6500
vn 0.7071 0.0000 -0.7071
vn 0.9192 0.3937 0.0000
vn 1.0000 0.0000 0.0000
vn 0.6500 0.3937 0.6500
vn 0.7071 0.0000 0.7071
vn -0.0000 0.3937 0.9192
vn -0.0000 0.0000 1.0000
vn -0.6500 0.3937 0.6500
vn -0.7071 0.0000 0.7071
vn -0.9192 0.3937 0.0000
vn -1.0000 0.0000 0.0000
vn 0.4617 0.7575 0.4617
vn -0.0000 0.7575 0.6529
vn -0.6500 0.3937 -0.6500
vn -0.7071 0.0000 -0.7071
vn 0.0000 -1.0000 0.0000
vn 0.0000 0.7575 -0.6529
vn -0.4617 0.7575 -0.4617
vn -0.6359 0.4374 -0.6359
vn 0.0000 0.4374 -0.8993
vn -0.6529 0.7575 0.0000
vn 0.4617 0.7575 -0.4617
vn 0.6529 0.7575 0.0000
vn -0.4617 0.7575 0.4617
vn -0.6359 0.4374 0.6359
vn -0.0000 0.4374 0.8993
vn -0.8993 0.4374 0.0000
vn 0.6359 0.4374 0.6359
vn 0.6359 0.4374 -0.6359
vn 0.8993 0.4374 -0.0000
vn 0.0000 1.0000 0.0000
usemtl Bottle
s 1
f 1/1/1 2/2/2 4/3/3 3/4/4
f 3/4/4 4/3/3 6/5/5 5/6/6
f 5/7/6 6/8/5 8/9/7 7/10/8
f 7/10/8 8/9/7 10/11/9 9/12/10
f 9/13/10 10/14/9 12/15/11 11/16/12
f 11/16/12 12/15/11 14/17/13 13/18/14
f 10/19/9 8/20/7 20/21/15 21/22/16
f 13/18/14 14/17/13 16/23/17 15/24/18
f 15/25/18 16/26/17 2/2/2 1/1/1
f 1/27/19 3/28/19 5/29/19 7/30/19 9/31/19 11/32/19 13/33/19 15/34/19
f 18/35/20 24/36/21 32/37/22 26/38/23
f 16/39/17 14/40/13 23/41/24 24/36/21
f 6/42/5 4/43/3 17/44/25 19/45/26
f 12/46/11 10/19/9 21/22/16 22/47/27
f 2/48/2 16/39/17 24/36/21 18/35/20
f 4/43/3 2/48/2 18/35/20 17/44/25
f 8/20/7 6/42/5 19/45/26 20/21/15
f 14/40/13 12/46/11 22/47/27 23/41/24
f 30/49/28 29/50/29 37/51/10 38/52/12
f 23/53/24 22/54/27 30/49/28 31/55/30
f 21/22/16 20/21/15 28/56/31 29/57/29
f 19/45/26 17/44/25 25/58/32 27/59/33
f 24/36/21 23/41/24 31/60/30 32/37/22
f 22/47/27 21/22/16 29/57/29 30/61/28
f 20/62/15 19/63/26 27/64/33 28/65/31
f 17/66/25 18/67/20 26/68/23 25/69/32
f 33/70/34 34/71/34 40/72/34 39/73/34 38/74/34 37/75/34 36/76/34 35/77/34
f 28/65/31 27/64/33 35/78/6 36/79/8
f 25/69/32 26/68/23 34/80/1 33/81/4
f 26/68/23 32/82/22 40/83/18 34/80/1
f 31/55/30 30/49/28 38/52/12 39/84/14
f 29/85/29 28/65/31 36/79/8 37/86/10
f 27/87/33 25/69/32 33/81/4 35/88/6
f 32/82/22 31/55/30 39/84/14 40/83/18
