# Blender v2.79 (sub 0) OBJ File: ''
# www.blender.org
mtllib PlantLeaf.mtl
o PlantLeaf_Plane
v 7.177897 3.028084 -14.955703
v 10.409420 3.028084 -14.955703
v 7.177897 3.222979 -19.014723
v 10.409420 3.222979 -19.014723
v 8.047278 0.955996 -10.908213
v 9.540039 0.955996 -10.908213
v 7.856125 0.247564 -22.218987
v 9.731192 0.247564 -22.218987
v 8.793659 2.796524 -14.955703
v 8.793659 2.991419 -19.204391
v 8.793659 0.724437 -10.908213
v 8.793659 -0.243593 -22.408655
v 8.793659 -0.320630 -9.268604
v 7.864828 -2.954663 -23.422199
v 9.709904 -2.636952 -23.319086
v 8.795891 -2.921623 -23.325191
v 8.793659 2.069075 -14.955703
v 8.793659 2.263970 -19.014723
v 8.793659 -0.003012 -10.908213
v 8.793659 -0.711444 -22.218987
v 8.804011 -3.041469 -22.911562
vt 0.381538 0.507590
vt 0.381538 0.827935
vt 0.255478 0.820262
vt 0.255478 0.513978
vt 0.381538 0.150378
vt 0.439769 0.156766
vt 0.507597 0.513978
vt 0.873945 0.576191
vt 0.874074 0.223439
vt 0.947234 0.264180
vt 1.000000 0.599727
vt 0.747882 0.599727
vt 0.800944 0.264180
vt 0.323306 0.156766
vt 0.507597 0.820262
vt 0.381538 0.000000
vt 0.874151 0.006378
vt 0.945482 0.025509
vt 0.801520 0.000000
vt 0.153583 0.861855
vt 0.011677 0.527418
vt 0.158188 0.526406
vt 0.240750 0.868786
vt 0.563820 0.514253
vt 0.507597 0.182211
vt 0.645931 0.226357
vt 0.655697 0.564917
vt 0.692258 0.496232
vt 0.747882 0.728597
vt 0.707168 0.742963
vt 0.000000 0.211064
vt 0.155263 0.000000
vt 0.255478 0.005185
vt 0.146511 0.210051
vt 0.232259 0.497892
vt 0.255478 0.848215
vt 0.747882 0.676965
vt 0.803420 0.599727
vt 0.803420 0.728490
vt 0.254489 1.000000
vt 0.628214 0.771036
vt 0.842864 0.599727
vt 0.836994 0.673788
vt 0.803420 0.673371
vt 0.842863 0.740932
vt 0.609548 0.000000
vt 0.747882 0.044146
vn 0.1625 -0.9546 -0.2496
vn 0.1315 -0.9141 0.3837
vn 0.1369 -0.9482 0.2866
vn 0.1608 -0.9604 -0.2275
vn -0.1625 -0.9546 -0.2496
vn -0.2174 -0.8487 -0.4821
vn -0.2023 -0.8615 -0.4658
vn -0.1608 -0.9604 -0.2275
vn 0.0652 -0.4839 0.8727
vn 0.0847 -0.6105 0.7875
vn -0.1369 -0.9482 0.2866
vn -0.0823 -0.6098 0.7883
vn -0.0606 -0.4828 0.8736
vn -0.1315 -0.9141 0.3837
vn 0.2023 -0.8615 -0.4658
vn 0.2174 -0.8487 -0.4821
vn -0.2531 -0.8158 -0.5200
vn 0.2531 -0.8158 -0.5200
vn 0.0434 -0.3406 0.9392
vn -0.0365 -0.3390 0.9401
vn -0.6585 0.7067 0.2588
vn -0.5541 0.8173 0.1582
vn -0.5646 0.8032 0.1900
vn -0.7152 0.6695 0.2005
vn 0.4821 0.5751 -0.6610
vn 0.5312 0.8190 -0.2170
vn 0.5300 0.7916 -0.3041
vn 0.4428 0.4227 -0.7907
vn -0.4844 0.5748 -0.6595
vn -0.4493 0.4792 -0.7540
vn -0.4650 0.7599 -0.4542
vn -0.4489 0.4222 -0.7876
vn -0.5312 0.8190 -0.2170
vn -0.5300 0.7916 -0.3041
vn 0.5541 0.8173 0.1582
vn 0.6585 0.7067 0.2588
vn 0.7152 0.6695 0.2005
vn 0.5646 0.8032 0.1900
vn 0.7836 0.6099 0.1181
vn -0.7836 0.6099 0.1181
vn 0.3685 0.5407 -0.7562
vn 0.3004 0.7643 -0.5706
vn -0.2878 0.9183 0.2717
vn -0.0631 0.9583 0.2789
usemtl Plant
s 1
f 9/1/1 10/2/2 4/3/3 2/4/4
f 9/1/5 11/5/6 5/6/7 1/7/8
f 10/8/2 12/9/9 8/10/10 4/11/3
f 3/12/11 7/13/12 12/9/13 10/8/14
f 2/4/4 6/14/15 11/5/16 9/1/1
f 1/7/8 3/15/11 10/2/14 9/1/5
f 11/5/6 13/16/17 5/6/7
f 6/14/15 13/16/18 11/5/16
f 12/9/9 16/17/19 15/18/19 8/10/10
f 7/13/12 14/19/20 16/17/20 12/9/13
f 6/20/21 2/21/22 17/22/23 19/23/24
f 7/24/25 3/25/26 18/26/27 20/27/28
f 8/28/29 15/29/30 21/30/31 20/27/32
f 4/31/33 8/32/29 20/33/32 18/34/34
f 1/35/35 5/36/36 19/23/37 17/22/38
f 2/21/22 4/31/33 18/34/34 17/22/23
f 19/37/37 5/38/36 13/39/39
f 6/20/21 19/23/24 13/40/40
f 14/41/41 7/24/25 20/27/28 21/30/42
f 15/42/30 16/43/43 21/44/31
f 16/43/44 14/45/41 21/44/42
f 3/25/26 1/46/35 17/47/38 18/26/27
