# Blender v2.79 (sub 0) OBJ File: ''
# www.blender.org
mtllib Plate.mtl
o Plate_Cylinder
v 2.662440 -0.110979 2.733384
v 3.742330 -0.110979 2.979862
v 4.608336 -0.110979 3.670478
v 5.088933 -0.110979 4.668447
v 5.088933 -0.110979 5.776110
v 4.608336 -0.110979 6.774081
v 3.742331 -0.110979 7.464697
v 2.662440 -0.110979 7.711174
v 1.582549 -0.110979 7.464697
v 0.716543 -0.110979 6.774081
v 0.235946 -0.110979 5.776110
v 0.235946 -0.110979 4.668447
v 0.716543 -0.110979 3.670477
v 1.582550 -0.110979 2.979861
v 4.205503 0.530225 2.018073
v 2.662440 0.530225 1.665879
v 5.442945 0.530225 3.004900
v 6.129673 0.530225 4.430906
v 6.129673 0.530225 6.013653
v 5.442945 0.530225 7.439658
v 4.205503 0.530225 8.426485
v 2.662440 0.530225 8.778679
v 1.119376 0.530225 8.426485
v -0.118065 0.530225 7.439659
v -0.804794 0.530225 6.013653
v -0.804794 0.530225 4.430905
v -0.118065 0.530225 3.004899
v 1.119377 0.530225 2.018073
v 3.982532 0.737763 2.481079
v 2.662440 0.737763 2.179777
v 5.041163 0.737763 3.325310
v 5.628659 0.737763 4.545259
v 5.628659 0.737763 5.899299
v 5.041163 0.737763 7.119248
v 3.982532 0.737763 7.963478
v 2.662440 0.737763 8.264781
v 1.342348 0.737763 7.963478
v 0.283717 0.737763 7.119248
v -0.303781 0.737763 5.899299
v -0.303781 0.737763 4.545259
v 0.283717 0.737763 3.325309
v 1.342349 0.737763 2.481079
v 3.699507 0.530225 3.068786
v 2.662440 0.530225 2.832083
v 4.531171 0.530225 3.732016
v 4.992708 0.530225 4.690411
v 4.992708 0.530225 5.754148
v 4.531171 0.530225 6.712542
v 3.699507 0.530225 7.375772
v 2.662440 0.530225 7.612474
v 1.625372 0.530225 7.375772
v 0.793709 0.530225 6.712543
v 0.332170 0.530225 5.754148
v 0.332170 0.530225 4.690410
v 0.793709 0.530225 3.732015
v 1.625373 0.530225 3.068786
vt 0.109694 0.281830
vt 0.049516 0.188255
vt 0.138740 0.049515
vt 0.172136 0.184735
vt 0.250000 0.000000
vt 0.250000 0.150082
vt 0.361260 0.049516
vt 0.327864 0.184735
vt 0.450484 0.188255
vt 0.390306 0.281830
vt 0.500000 0.388740
vt 0.424959 0.422136
vt 0.500000 0.611260
vt 0.424959 0.577864
vt 0.450484 0.811745
vt 0.390306 0.718170
vt 0.361261 0.950484
vt 0.327864 0.815265
vt 0.250000 1.000000
vt 0.250000 0.849918
vt 0.138739 0.950484
vt 0.172136 0.815265
vt 0.049516 0.811745
vt 0.109694 0.718170
vt 0.000000 0.611260
vt 0.075041 0.577864
vt 0.000000 0.388739
vt 0.075041 0.422136
vt 0.950484 0.811745
vt 0.861260 0.950485
vt 0.845183 0.885390
vt 0.921515 0.766698
vt 0.536125 0.595183
vt 0.536125 0.404817
vt 0.581979 0.425224
vt 0.581979 0.574776
vt 0.500000 0.388740
vt 0.549516 0.188255
vt 0.578485 0.233302
vt 1.000000 0.611261
vt 0.963875 0.595184
vt 0.500000 0.611260
vt 1.000000 0.388740
vt 0.963875 0.404817
vt 0.950485 0.188255
vt 0.921515 0.233302
vt 0.549516 0.811745
vt 0.578485 0.766698
vt 0.861261 0.049516
vt 0.845183 0.114611
vt 0.638739 0.950485
vt 0.654817 0.885390
vt 0.750000 0.000000
vt 0.750000 0.072250
vt 0.750000 1.000000
vt 0.750000 0.927750
vt 0.638740 0.049516
vt 0.654817 0.114610
vt 0.615258 0.709518
vt 0.615258 0.290482
vt 0.675224 0.197237
vt 0.750000 0.163958
vt 0.824776 0.197237
vt 0.884742 0.290482
vt 0.918021 0.425224
vt 0.918021 0.574776
vt 0.884742 0.709519
vt 0.824776 0.802763
vt 0.750000 0.836042
vt 0.675224 0.802763
vn 0.2234 -0.8572 -0.4639
vn 0.4026 -0.8572 -0.3210
vn 0.5020 -0.8572 -0.1146
vn 0.5020 -0.8572 0.1146
vn 0.4026 -0.8572 0.3210
vn 0.2234 -0.8572 0.4639
vn 0.0000 -0.8572 0.5149
vn -0.2234 -0.8572 0.4639
vn -0.4026 -0.8572 0.3210
vn -0.5020 -0.8572 0.1146
vn -0.5020 -0.8572 -0.1146
vn -0.4026 -0.8572 -0.3210
vn -0.2234 -0.8572 -0.4639
vn 0.0000 -0.8572 -0.5149
vn 0.0000 -1.0000 -0.0000
vn 0.2928 0.9272 0.2335
vn 0.3651 0.9272 0.0833
vn -0.0000 0.9529 0.3032
vn 0.1315 0.9529 0.2732
vn -0.1625 0.9272 -0.3374
vn -0.2928 0.9272 -0.2335
vn 0.1625 0.9272 0.3374
vn 0.0000 0.9272 -0.3745
vn 0.0000 0.9272 0.3745
vn -0.1625 0.9272 0.3374
vn 0.1625 0.9272 -0.3374
vn -0.2928 0.9272 0.2335
vn 0.2928 0.9272 -0.2335
vn -0.3651 0.9272 0.0833
vn 0.3651 0.9272 -0.0833
vn -0.3651 0.9272 -0.0833
vn 0.0000 1.0000 0.0000
vn -0.0000 0.9529 -0.3032
vn -0.1315 0.9529 -0.2732
vn 0.1315 0.9529 -0.2732
vn -0.1315 0.9529 0.2732
vn 0.2370 0.9529 -0.1890
vn -0.2370 0.9529 0.1890
vn 0.2956 0.9529 -0.0675
vn -0.2956 0.9529 0.0675
vn 0.2956 0.9529 0.0675
vn -0.2956 0.9529 -0.0675
vn 0.2370 0.9529 0.1890
vn -0.2370 0.9529 -0.1890
usemtl Muggy
s 1
f 2/1/1 15/2/1 17/3/2 3/4/2
f 3/4/2 17/3/2 18/5/3 4/6/3
f 4/6/3 18/5/3 19/7/4 5/8/4
f 5/8/4 19/7/4 20/9/5 6/10/5
f 6/10/5 20/9/5 21/11/6 7/12/6
f 7/12/6 21/11/6 22/13/7 8/14/7
f 8/14/7 22/13/7 23/15/8 9/16/8
f 9/16/8 23/15/8 24/17/9 10/18/9
f 10/18/9 24/17/9 25/19/10 11/20/10
f 11/20/10 25/19/10 26/21/11 12/22/11
f 12/22/11 26/21/11 27/23/12 13/24/12
f 13/24/12 27/23/12 28/25/13 14/26/13
f 14/26/13 28/25/13 16/27/14 1/28/14
f 1/28/15 2/1/15 3/4/15 4/6/15 5/8/15 6/10/15 7/12/15 8/14/15 9/16/15 10/18/15 11/20/15 12/22/15 13/24/15 14/26/15
f 20/29/16 19/30/17 33/31/17 34/32/16
f 30/33/18 42/34/19 56/35/19 44/36/18
f 28/37/20 27/38/21 41/39/21 42/34/20
f 21/40/22 20/29/16 34/32/16 35/41/22
f 16/42/23 28/37/20 42/34/20 30/33/23
f 22/43/24 21/40/22 35/41/22 36/44/24
f 23/45/25 22/43/24 36/44/24 37/46/25
f 15/47/26 16/42/23 30/33/23 29/48/26
f 24/49/27 23/45/25 37/46/25 38/50/27
f 17/51/28 15/47/26 29/48/26 31/52/28
f 25/53/29 24/49/27 38/50/27 39/54/29
f 18/55/30 17/51/28 31/52/28 32/56/30
f 26/57/31 25/53/29 39/54/29 40/58/31
f 19/30/17 18/55/30 32/56/30 33/31/17
f 27/38/21 26/57/31 40/58/31 41/39/21
f 43/59/32 44/36/32 56/35/32 55/60/32 54/61/32 53/62/32 52/63/32 51/64/32 50/65/32 49/66/32 48/67/32 47/68/32 46/69/32 45/70/32
f 36/44/33 35/41/34 49/66/34 50/65/33
f 37/46/35 36/44/33 50/65/33 51/64/35
f 29/48/36 30/33/18 44/36/18 43/59/36
f 38/50/37 37/46/35 51/64/35 52/63/37
f 31/52/38 29/48/36 43/59/36 45/70/38
f 39/54/39 38/50/37 52/63/37 53/62/39
f 32/56/40 31/52/38 45/70/38 46/69/40
f 40/58/41 39/54/39 53/62/39 54/61/41
f 33/31/42 32/56/40 46/69/40 47/68/42
f 41/39/43 40/58/41 54/61/41 55/60/43
f 34/32/44 33/31/42 47/68/42 48/67/44
f 42/34/19 41/39/43 55/60/43 56/35/19
f 35/41/34 34/32/44 48/67/44 49/66/34
f 1/28/14 16/27/14 15/2/1 2/1/1
